<?xml version="1.0" standalone="no"?>
<!DOCTYPE svg PUBLIC "-//W3C//DTD SVG 20010904//EN"
 "http://www.w3.org/TR/2001/REC-SVG-20010904/DTD/svg10.dtd">
<svg version="1.0" xmlns="http://www.w3.org/2000/svg"
 width="1080.000000pt" height="1080.000000pt" viewBox="0 0 1080.000000 1080.000000"
 preserveAspectRatio="xMidYMid meet">
<metadata>
Created by potrace 1.14, written by Peter Selinger 2001-2017
</metadata>
<g transform="translate(0.000000,1080.000000) scale(0.100000,-0.100000)"
fill="#000000" stroke="none">
<path d="M5044 9193 c-519 -450 -1085 -1009 -1490 -1473 -337 -384 -704 -875
-943 -1258 l-52 -84 26 -101 c180 -686 492 -1350 907 -1935 60 -85 108 -157
106 -161 -2 -4 -289 -306 -638 -671 -349 -365 -636 -666 -638 -669 -1 -3 73
-26 165 -50 93 -24 281 -77 418 -118 1136 -337 2055 -717 2896 -1199 4 -2 56
63 115 144 60 81 188 246 284 367 625 781 1317 1475 2023 2029 76 60 136 113
134 120 -3 6 -287 717 -631 1580 l-627 1570 74 75 c824 845 1228 1263 1225
1266 -2 2 -197 42 -433 89 -839 166 -1688 358 -2375 537 -190 49 -350 91 -356
93 -6 2 -91 -66 -190 -151z m-72 -1443 c203 -26 379 -59 696 -130 264 -60 989
-244 1000 -254 2 -3 -119 -133 -270 -288 -151 -156 -526 -542 -832 -858 -307
-316 -563 -575 -569 -575 -13 0 -85 101 -291 410 -413 618 -624 1054 -643
1325 -12 179 56 306 189 349 129 42 477 53 720 21z m1075 -1896 c600 -852 938
-1446 1024 -1799 60 -244 4 -472 -150 -617 -104 -98 -215 -149 -401 -184 -140
-27 -501 -25 -705 4 -473 67 -950 223 -1454 477 -250 126 -456 240 -456 252 0
15 1988 2062 2000 2059 5 -1 69 -88 142 -192z"/>
</g>
</svg>
